<svg xmlns="http://www.w3.org/2000/svg" fill="none" viewBox="0 0 65 65">
  <path fill="#242A45" d="M21.7 29.63h-3.63V3.48A3.5 3.5 0 0 1 21.57 0h21.86a3.48 3.48 0 0 1 3.48 3.48v8.9H43.3v-8.9l-21.73.13.13 26.02z"/>
  <path fill="#242A45" d="M19.7 33.3a4.45 4.45 0 1 0 0-8.9 4.45 4.45 0 0 0 0 8.9z"/>
  <path fill="#91A6FF" d="M43.43 65H21.57a3.5 3.5 0 0 1-3.5-3.48v-8.9h3.61v8.9l21.75-.13-.13-26.02h3.6v26.15A3.47 3.47 0 0 1 43.44 65z"/>
  <path fill="#91A6FF" d="M45.12 39.82a4.45 4.45 0 1 0 0-8.9 4.45 4.45 0 0 0 0 8.9z"/>
  <path fill="#4062BB" d="M61.52 46.93h-8.9v-3.61h8.9l-.13-21.75-26.02.13v-3.63h26.15A3.48 3.48 0 0 1 65 21.55V43.4a3.5 3.5 0 0 1-3.48 3.52z"/>
  <path fill="#4062BB" d="M35.37 24.35a4.45 4.45 0 1 0 0-8.9 4.45 4.45 0 0 0 0 8.9z"/>
  <path fill="#E94156" d="M29.63 46.93H3.48A3.5 3.5 0 0 1 0 43.43V21.57a3.5 3.5 0 0 1 3.48-3.5h8.9v3.61h-8.9l.13 21.75 26.02-.13v3.63z"/>
  <path fill="#E94156" d="M29.63 49.57a4.45 4.45 0 1 0 0-8.9 4.45 4.45 0 0 0 0 8.9z"/>
</svg>